<svg width="290" height="49" viewBox="0 0 290 49" fill="none" xmlns="http://www.w3.org/2000/svg">
<path d="M106.352 24.3656C106.352 23.8098 106.63 23.5319 107.186 23.5319H120.107C120.335 23.5319 120.531 23.6045 120.695 23.7498C120.859 23.895 120.941 24.1003 120.941 24.3656V28.2117C120.941 28.4011 120.865 28.6001 120.714 28.8085C120.562 29.0169 120.36 29.1211 120.107 29.1211H107.186C106.63 29.1211 106.352 28.818 106.352 28.2117V24.3656ZM130.623 28.6664C130.837 28.8432 131.112 29.0801 131.447 29.3769C131.782 29.6737 132.164 29.9674 132.593 30.2579C133.237 30.6873 133.875 31.0221 134.507 31.2621C135.138 31.502 135.801 31.622 136.496 31.622C137.14 31.622 137.68 31.5494 138.116 31.4042C138.552 31.2589 138.896 31.0663 139.149 30.8263C139.401 30.5863 139.581 30.3084 139.689 29.9926C139.796 29.6769 139.85 29.3421 139.85 28.9885C139.85 28.5969 139.701 28.2464 139.404 27.937C139.108 27.6275 138.744 27.3528 138.315 27.1128C137.885 26.8728 137.437 26.6675 136.97 26.497C136.502 26.3265 136.098 26.1844 135.757 26.0707C134.241 25.5402 132.915 24.9687 131.778 24.3561C130.642 23.7435 129.694 23.0614 128.936 22.3099C128.179 21.5583 127.61 20.731 127.231 19.8279C126.852 18.9248 126.663 17.9175 126.663 16.8059C126.663 15.6312 126.9 14.5639 127.373 13.604C127.847 12.644 128.523 11.823 129.401 11.1409C130.278 10.4589 131.336 9.93153 132.574 9.55892C133.812 9.18631 135.195 9 136.723 9C137.873 9 138.975 9.12947 140.03 9.3884C141.084 9.64734 142.123 10.061 143.146 10.6294C143.576 10.882 143.983 11.1441 144.368 11.4157C144.754 11.6872 145.091 11.9493 145.382 12.2019C145.672 12.4546 145.903 12.6946 146.073 12.9219C146.244 13.1493 146.329 13.345 146.329 13.5092C146.329 13.6735 146.288 13.825 146.206 13.964C146.124 14.1029 146.001 14.2608 145.837 14.4376L142.938 17.5259C142.723 17.7406 142.508 17.848 142.294 17.848C142.117 17.848 141.956 17.7975 141.811 17.6964C141.665 17.5954 141.504 17.4691 141.327 17.3175L141.157 17.1659C140.904 16.9512 140.623 16.7301 140.314 16.5028C140.004 16.2754 139.673 16.0702 139.319 15.887C138.965 15.7039 138.593 15.5523 138.201 15.4323C137.81 15.3123 137.412 15.2523 137.008 15.2523C136.591 15.2523 136.199 15.2871 135.833 15.3565C135.467 15.426 135.145 15.5365 134.867 15.6881C134.589 15.8397 134.368 16.0386 134.204 16.2849C134.039 16.5312 133.957 16.8312 133.957 17.1849C133.957 17.5385 134.046 17.8448 134.222 18.1038C134.399 18.3627 134.665 18.6027 135.018 18.8237C135.372 19.0448 135.811 19.2532 136.335 19.449C136.859 19.6447 137.469 19.8563 138.163 20.0837C139.502 20.5257 140.737 20.9899 141.867 21.4762C142.998 21.9625 143.974 22.5372 144.795 23.2003C145.616 23.8635 146.257 24.6561 146.718 25.5781C147.179 26.5002 147.409 27.618 147.409 28.9316C147.409 30.321 147.125 31.581 146.557 32.7115C145.988 33.8419 145.208 34.805 144.217 35.6008C143.225 36.3965 142.06 37.0123 140.721 37.4481C139.382 37.8838 137.942 38.1017 136.401 38.1017C134.949 38.1017 133.521 37.8428 132.119 37.3249C130.717 36.807 129.41 36.1123 128.198 35.2408C127.692 34.8745 127.266 34.5145 126.919 34.1609C126.571 33.8072 126.297 33.523 126.094 33.3083L126.038 33.2514C126.025 33.2262 126.012 33.2104 126 33.2041C125.987 33.1977 125.974 33.1883 125.962 33.1756C125.949 33.1504 125.937 33.1346 125.924 33.1283C125.911 33.122 125.899 33.1125 125.886 33.0999C125.596 32.7841 125.45 32.5315 125.45 32.342C125.45 32.1273 125.596 31.8873 125.886 31.622L129.164 28.4959C129.429 28.3064 129.644 28.2117 129.808 28.2117C129.922 28.2117 130.042 28.2496 130.168 28.3254C130.294 28.4011 130.446 28.5148 130.623 28.6664ZM152.013 10.4399C152.026 10.2252 152.105 10.0326 152.25 9.86206C152.395 9.69154 152.588 9.60629 152.828 9.60629H158.455C158.644 9.60629 158.84 9.68523 159.042 9.84312C159.244 10.001 159.345 10.1999 159.345 10.4399V19.4205H168.762V10.4399C168.762 10.2126 168.841 10.0168 168.999 9.85259C169.157 9.68839 169.362 9.60629 169.614 9.60629H175.166C175.418 9.60629 175.639 9.66944 175.829 9.79575C176.018 9.92206 176.113 10.1242 176.113 10.402V36.9081C176.113 37.186 176.031 37.3944 175.867 37.5333C175.703 37.6723 175.488 37.7417 175.223 37.7417H169.614C169.362 37.7417 169.157 37.6723 168.999 37.5333C168.841 37.3944 168.762 37.186 168.762 36.9081V26.1465H159.345V36.9081C159.345 37.1733 159.26 37.3786 159.09 37.5238C158.919 37.6691 158.689 37.7417 158.398 37.7417H152.828C152.297 37.7417 152.026 37.4954 152.013 37.0028V10.4399ZM203.756 11.6525C203.971 11.7788 204.128 11.943 204.23 12.1451C204.331 12.3472 204.312 12.5872 204.173 12.8651L200.971 17.4122C200.832 17.6269 200.683 17.7501 200.526 17.7817C200.368 17.8132 200.175 17.7596 199.948 17.6206C199.329 17.1533 198.647 16.7933 197.901 16.5407C197.156 16.2881 196.367 16.1617 195.533 16.1617C194.497 16.1617 193.544 16.3575 192.672 16.7491C191.801 17.1406 191.049 17.6775 190.418 18.3595C189.786 19.0416 189.293 19.8374 188.94 20.7468C188.586 21.6562 188.409 22.6288 188.409 23.6645C188.409 24.7003 188.586 25.6697 188.94 26.5728C189.293 27.4759 189.786 28.2654 190.418 28.9411C191.049 29.6169 191.801 30.1505 192.672 30.5421C193.544 30.9336 194.497 31.1294 195.533 31.1294C196.367 31.1294 197.163 31 197.92 30.741C198.678 30.4821 199.367 30.1189 199.986 29.6516C200.213 29.5127 200.402 29.4558 200.554 29.4811C200.706 29.5063 200.857 29.62 201.009 29.8221L204.248 34.4829C204.387 34.7608 204.406 34.9945 204.305 35.184C204.204 35.3734 204.046 35.5313 203.832 35.6576C202.644 36.4534 201.365 37.0691 199.995 37.5049C198.625 37.9407 197.181 38.1585 195.666 38.1585C194.327 38.1585 193.042 37.988 191.81 37.647C190.579 37.306 189.426 36.8197 188.352 36.1881C187.279 35.5566 186.303 34.8019 185.425 33.924C184.547 33.0462 183.793 32.0736 183.161 31.0063C182.53 29.939 182.043 28.7895 181.702 27.558C181.361 26.3265 181.191 25.0413 181.191 23.7024C181.191 22.3635 181.361 21.0783 181.702 19.8468C182.043 18.6153 182.53 17.4596 183.161 16.3796C183.793 15.2997 184.547 14.3176 185.425 13.4335C186.303 12.5493 187.279 11.7946 188.352 11.1694C189.426 10.5441 190.579 10.0578 191.81 9.71049C193.042 9.36314 194.327 9.18946 195.666 9.18946C197.181 9.18946 198.612 9.40103 199.957 9.82417C201.302 10.2473 202.569 10.8568 203.756 11.6525ZM213.475 23.6835C213.475 24.7318 213.652 25.7107 214.006 26.6202C214.36 27.5296 214.855 28.3222 215.493 28.998C216.131 29.6737 216.886 30.2042 217.757 30.5895C218.629 30.9747 219.589 31.1673 220.637 31.1673C221.686 31.1673 222.649 30.9747 223.526 30.5895C224.404 30.2042 225.162 29.6737 225.8 28.998C226.438 28.3222 226.934 27.5296 227.287 26.6202C227.641 25.7107 227.818 24.7318 227.818 23.6835C227.818 22.6477 227.641 21.672 227.287 20.7563C226.934 19.8405 226.438 19.0416 225.8 18.3595C225.162 17.6775 224.404 17.1406 223.526 16.7491C222.649 16.3575 221.686 16.1617 220.637 16.1617C219.589 16.1617 218.629 16.3575 217.757 16.7491C216.886 17.1406 216.131 17.6775 215.493 18.3595C214.855 19.0416 214.36 19.8405 214.006 20.7563C213.652 21.672 213.475 22.6477 213.475 23.6835ZM206.162 23.7024C206.162 22.3635 206.333 21.0783 206.674 19.8468C207.015 18.6153 207.501 17.4596 208.132 16.3796C208.764 15.2997 209.519 14.3176 210.397 13.4335C211.274 12.5493 212.25 11.7946 213.324 11.1694C214.397 10.5441 215.55 10.0578 216.782 9.71049C218.013 9.36314 219.298 9.18946 220.637 9.18946C221.963 9.18946 223.245 9.36314 224.483 9.71049C225.721 10.0578 226.877 10.5441 227.95 11.1694C229.024 11.7946 230.003 12.5493 230.887 13.4335C231.771 14.3176 232.526 15.2997 233.151 16.3796C233.777 17.4596 234.263 18.6153 234.61 19.8468C234.958 21.0783 235.131 22.3635 235.131 23.7024C235.131 25.0413 234.958 26.3265 234.61 27.558C234.263 28.7895 233.777 29.939 233.151 31.0063C232.526 32.0736 231.771 33.0462 230.887 33.924C230.003 34.8019 229.024 35.5566 227.95 36.1881C226.877 36.8197 225.721 37.306 224.483 37.647C223.245 37.988 221.963 38.1585 220.637 38.1585C219.298 38.1585 218.013 37.988 216.782 37.647C215.55 37.306 214.397 36.8197 213.324 36.1881C212.25 35.5566 211.274 34.8019 210.397 33.924C209.519 33.0462 208.764 32.0736 208.132 31.0063C207.501 29.939 207.015 28.7895 206.674 27.558C206.333 26.3265 206.162 25.0413 206.162 23.7024ZM245.779 23.6835C245.779 24.7318 245.956 25.7107 246.31 26.6202C246.663 27.5296 247.159 28.3222 247.797 28.998C248.435 29.6737 249.189 30.2042 250.061 30.5895C250.933 30.9747 251.892 31.1673 252.941 31.1673C253.989 31.1673 254.952 30.9747 255.83 30.5895C256.708 30.2042 257.466 29.6737 258.104 28.998C258.742 28.3222 259.237 27.5296 259.591 26.6202C259.945 25.7107 260.122 24.7318 260.122 23.6835C260.122 22.6477 259.945 21.672 259.591 20.7563C259.237 19.8405 258.742 19.0416 258.104 18.3595C257.466 17.6775 256.708 17.1406 255.83 16.7491C254.952 16.3575 253.989 16.1617 252.941 16.1617C251.892 16.1617 250.933 16.3575 250.061 16.7491C249.189 17.1406 248.435 17.6775 247.797 18.3595C247.159 19.0416 246.663 19.8405 246.31 20.7563C245.956 21.672 245.779 22.6477 245.779 23.6835ZM238.466 23.7024C238.466 22.3635 238.636 21.0783 238.977 19.8468C239.318 18.6153 239.805 17.4596 240.436 16.3796C241.068 15.2997 241.822 14.3176 242.7 13.4335C243.578 12.5493 244.554 11.7946 245.628 11.1694C246.701 10.5441 247.854 10.0578 249.085 9.71049C250.317 9.36314 251.602 9.18946 252.941 9.18946C254.267 9.18946 255.549 9.36314 256.787 9.71049C258.025 10.0578 259.18 10.5441 260.254 11.1694C261.328 11.7946 262.307 12.5493 263.191 13.4335C264.075 14.3176 264.83 15.2997 265.455 16.3796C266.08 17.4596 266.566 18.6153 266.914 19.8468C267.261 21.0783 267.435 22.3635 267.435 23.7024C267.435 25.0413 267.261 26.3265 266.914 27.558C266.566 28.7895 266.08 29.939 265.455 31.0063C264.83 32.0736 264.075 33.0462 263.191 33.924C262.307 34.8019 261.328 35.5566 260.254 36.1881C259.18 36.8197 258.025 37.306 256.787 37.647C255.549 37.988 254.267 38.1585 252.941 38.1585C251.602 38.1585 250.317 37.988 249.085 37.647C247.854 37.306 246.701 36.8197 245.628 36.1881C244.554 35.5566 243.578 34.8019 242.7 33.924C241.822 33.0462 241.068 32.0736 240.436 31.0063C239.805 29.939 239.318 28.7895 238.977 27.558C238.636 26.3265 238.466 25.0413 238.466 23.7024ZM271.414 10.421C271.414 10.1936 271.489 9.99785 271.641 9.83364C271.793 9.66944 272.001 9.58734 272.266 9.58734H277.874C278.089 9.58734 278.285 9.66313 278.462 9.8147C278.638 9.96627 278.733 10.1684 278.746 10.421V31.0347H289.166C289.394 31.0347 289.59 31.1105 289.754 31.2621C289.918 31.4136 290 31.622 290 31.8873V36.8702C290 37.0849 289.927 37.2807 289.782 37.4575C289.637 37.6344 289.432 37.7291 289.166 37.7417H272.247C271.691 37.7417 271.414 37.4638 271.414 36.9081V10.421Z" fill="url(#paint0_linear_307_31)"/>
<path d="M0.487422 33.548C0.974845 38.7779 4.24571 41.9727 8.68488 43.9091C13.1209 45.8466 19.313 45.4105 23.5064 45.4126C27.704 45.4105 30.481 44.1043 30.481 44.1043C30.481 44.1043 34.747 44.3717 39.9505 44.567C39.9964 44.6868 40.4058 45.4975 42.0605 45.5994C43.5773 45.6917 44.2731 44.9351 44.4452 44.7113C44.798 44.7197 45.1518 44.7303 45.5056 44.7367C52.8158 44.88 67.7848 44.4895 67.881 44.4916C67.0056 46.1861 66.7587 48.9459 66.7651 48.9926C68.5684 49.1868 70.9563 45.5039 70.8612 45.4582C77.4435 46.236 82.2728 46.1861 85.1012 45.993C87.9252 45.7967 92.1677 45.6471 95.9762 41.44C100.309 36.6536 100.996 28.3159 100.999 24.5078C101.001 24.5078 100.999 24.5014 100.999 24.5014C100.999 24.5014 100.996 24.493 100.999 24.493C100.996 20.6817 100.309 12.3471 95.973 7.55755C92.1677 3.35897 87.9252 3.203 85.1012 3.0067C82.2696 2.81465 77.4435 2.76584 70.8633 3.54147C70.9595 3.4916 68.5684 -0.182812 66.7619 0.00711636C66.7651 0.0580467 67.0077 2.81784 67.8789 4.50597C67.7848 4.51127 52.8158 4.11762 45.5024 4.26511C45.1539 4.27572 44.8022 4.28102 44.4559 4.28845C44.2892 4.07306 43.5965 3.29849 42.0637 3.39505C40.3545 3.49903 39.9697 4.35954 39.944 4.42957C34.7449 4.62799 30.481 4.89431 30.481 4.89431C30.481 4.89431 27.7029 3.58816 23.5064 3.58816C19.3152 3.59134 13.1209 3.15313 8.68274 5.09379C4.24784 7.02596 0.971638 10.2187 0.485285 15.4507C0 20.6636 0.00320675 21.5072 0.00320675 24.4887C0.00534457 24.494 0.00320673 24.4972 0 24.5004C0.00320673 24.5057 0.00320675 24.5142 0.00320675 24.5142C0.00320675 27.4925 0.00534463 28.3361 0.487422 33.548ZM97.9676 23.3502C98.2231 23.3502 98.4369 23.8659 98.4369 24.4919C98.4347 25.1243 98.2231 25.6325 97.9676 25.6325C97.71 25.6325 97.508 25.1243 97.5101 24.4919C97.5048 23.8627 97.71 23.3502 97.9676 23.3502ZM91.4601 5.81849C91.971 5.45242 93.1768 6.24503 94.1548 7.59362C95.1265 8.93585 95.4984 10.3322 94.9907 10.6972C94.468 11.0622 93.2666 10.2696 92.2906 8.92099C91.3179 7.57452 90.9417 6.18349 91.4601 5.81849ZM92.2906 40.0522C93.2666 38.7089 94.4734 37.9152 94.9875 38.2781C95.4984 38.6484 95.1243 40.0331 94.1516 41.3817C93.1768 42.7303 91.9678 43.5176 91.4612 43.1558C90.9438 42.7876 91.3179 41.4008 92.2906 40.0522ZM30.5772 43.2449L19.4124 41.892C19.4124 41.892 25.2113 41.1047 29.5543 40.7196C33.8908 40.3334 51.2093 40.6209 55.2562 41.1069C59.0144 41.5493 72.6131 43.2491 72.6131 43.2491C62.6167 43.647 30.5772 43.2449 30.5772 43.2449ZM75.9802 6.56865L76.0646 6.61003C79.39 8.27269 81.8121 11.3869 83.2498 15.8592C84.4855 19.7257 84.5934 23.4457 84.5934 24.493C84.5902 25.5423 84.4887 29.2624 83.253 33.1299C81.8121 37.6033 79.3943 40.7143 76.0646 42.3801L75.9823 42.4162L75.9716 42.3769C75.2843 42.2422 65.7689 40.9732 60.7087 40.3026L60.6135 40.2909L60.6467 40.2071C60.6595 40.1922 61.241 38.6728 61.8171 35.9905C62.3473 33.514 62.9812 29.5054 62.9812 24.493C62.9812 19.4784 62.3505 15.4687 61.8171 12.9912C61.2378 10.3088 60.6595 8.79685 60.6467 8.78094L60.6135 8.69817L60.7055 8.68226C65.7689 8.01592 75.2875 6.74478 75.9684 6.61533L75.9802 6.56865ZM30.5772 5.72936C30.5772 5.72936 62.6135 5.32722 72.6131 5.72936C72.6131 5.72936 59.007 7.42173 55.253 7.87374C51.2093 8.35864 33.8962 8.643 29.5521 8.25678C25.2123 7.87586 19.4124 7.08219 19.4124 7.08219L30.5772 5.72936ZM11.572 10.9126L11.5859 10.8988L11.6041 10.8945C11.6041 10.8945 15.3848 10.7428 19.1613 10.5932C21.0522 10.5189 22.9409 10.4383 24.3594 10.3895C25.6282 10.3449 26.2267 10.3237 26.5196 10.3237C26.5966 10.3205 26.6532 10.3173 26.6906 10.3258L26.7035 10.3205L26.7056 10.3258C26.7911 10.3332 26.7943 10.3492 26.7997 10.3768L26.8125 10.4372L26.773 10.4457C24.9686 13.8114 24.9494 24.3794 24.9515 24.4866C24.9494 24.5959 24.9686 35.1639 26.7783 38.5264L26.8104 38.5391L26.8018 38.5975C26.7943 38.6208 26.7911 38.6399 26.7056 38.6505V38.6569L26.6906 38.6484C26.495 38.6611 25.9499 38.6431 24.3594 38.5848C22.9431 38.5338 21.0511 38.4585 19.1634 38.381C15.3848 38.2304 11.6041 38.0797 11.6041 38.0797L11.5816 38.0712C11.417 38.0097 7.55825 36.504 7.53474 25.2505V25.1328C7.52084 21.7374 7.88 13.5429 11.572 10.9126ZM6.73199 27.501H6.09599V21.4732H6.73199V27.501ZM4.11316 9.70087C4.79619 8.46262 5.72294 7.66895 6.19753 7.9236C6.66999 8.18038 6.50003 9.38785 5.81914 10.625C5.14466 11.8622 4.20722 12.6569 3.7369 12.4012C3.26445 12.1508 3.43333 10.937 4.11316 9.70087ZM3.7369 36.5741C4.20509 36.3184 5.14145 37.1131 5.81914 38.3503C6.50431 39.5832 6.6732 40.7981 6.19753 41.0549C5.72507 41.3053 4.79406 40.5116 4.11102 39.2744C3.43654 38.0372 3.26445 36.8234 3.7369 36.5741Z" fill="url(#paint1_linear_307_31)"/>
<defs>
<linearGradient id="paint0_linear_307_31" x1="-9.99999" y1="9" x2="290" y2="9" gradientUnits="userSpaceOnUse">
<stop stop-color="#51504F"/>
<stop offset="0.5" stop-color="#939598"/>
<stop offset="1" stop-color="#51504F"/>
</linearGradient>
<linearGradient id="paint1_linear_307_31" x1="0" y1="0" x2="101" y2="0" gradientUnits="userSpaceOnUse">
<stop stop-color="#006838"/>
<stop offset="1" stop-color="#96CF24"/>
</linearGradient>
</defs>
</svg>
