<svg width="165" height="81" viewBox="0 0 165 81" fill="none" xmlns="http://www.w3.org/2000/svg">
<path d="M28.4874 33.548C28.9748 38.7779 32.2457 41.9727 36.6849 43.9091C41.1209 45.8466 47.313 45.4105 51.5064 45.4126C55.704 45.4105 58.481 44.1043 58.481 44.1043C58.481 44.1043 62.747 44.3717 67.9505 44.567C67.9964 44.6868 68.4058 45.4975 70.0605 45.5994C71.5773 45.6917 72.2731 44.9351 72.4452 44.7113C72.798 44.7197 73.1518 44.7303 73.5056 44.7367C80.8158 44.88 95.7848 44.4895 95.881 44.4916C95.0056 46.1861 94.7587 48.9459 94.7651 48.9926C96.5684 49.1868 98.9563 45.5039 98.8612 45.4582C105.444 46.236 110.273 46.1861 113.101 45.993C115.925 45.7967 120.168 45.6471 123.976 41.44C128.309 36.6536 128.996 28.3159 128.999 24.5078C129.001 24.5078 128.999 24.5014 128.999 24.5014C128.999 24.5014 128.996 24.493 128.999 24.493C128.996 20.6817 128.309 12.3471 123.973 7.55755C120.168 3.35897 115.925 3.203 113.101 3.0067C110.27 2.81465 105.444 2.76584 98.8633 3.54147C98.9595 3.4916 96.5684 -0.182812 94.7619 0.00711636C94.7651 0.0580467 95.0077 2.81784 95.8789 4.50597C95.7848 4.51127 80.8158 4.11762 73.5024 4.26511C73.1539 4.27572 72.8022 4.28102 72.4559 4.28845C72.2892 4.07306 71.5965 3.29849 70.0637 3.39505C68.3545 3.49903 67.9697 4.35954 67.944 4.42957C62.7449 4.62799 58.481 4.89431 58.481 4.89431C58.481 4.89431 55.7029 3.58816 51.5064 3.58816C47.3152 3.59134 41.1209 3.15313 36.6827 5.09379C32.2478 7.02596 28.9716 10.2187 28.4853 15.4507C28 20.6636 28.0032 21.5072 28.0032 24.4887C28.0053 24.494 28.0032 24.4972 28 24.5004C28.0032 24.5057 28.0032 24.5142 28.0032 24.5142C28.0032 27.4925 28.0053 28.3361 28.4874 33.548ZM125.968 23.3502C126.223 23.3502 126.437 23.8659 126.437 24.4919C126.435 25.1243 126.223 25.6325 125.968 25.6325C125.71 25.6325 125.508 25.1243 125.51 24.4919C125.505 23.8627 125.71 23.3502 125.968 23.3502ZM119.46 5.81849C119.971 5.45242 121.177 6.24503 122.155 7.59362C123.126 8.93585 123.498 10.3322 122.991 10.6972C122.468 11.0622 121.267 10.2696 120.291 8.92099C119.318 7.57452 118.942 6.18349 119.46 5.81849ZM120.291 40.0522C121.267 38.7089 122.473 37.9152 122.988 38.2781C123.498 38.6484 123.124 40.0331 122.152 41.3817C121.177 42.7303 119.968 43.5176 119.461 43.1558C118.944 42.7876 119.318 41.4008 120.291 40.0522ZM58.5772 43.2449L47.4124 41.892C47.4124 41.892 53.2113 41.1047 57.5543 40.7196C61.8908 40.3334 79.2093 40.6209 83.2562 41.1069C87.0144 41.5493 100.613 43.2491 100.613 43.2491C90.6167 43.647 58.5772 43.2449 58.5772 43.2449ZM103.98 6.56865L104.065 6.61003C107.39 8.27269 109.812 11.3869 111.25 15.8592C112.485 19.7257 112.593 23.4457 112.593 24.493C112.59 25.5423 112.489 29.2624 111.253 33.1299C109.812 37.6033 107.394 40.7143 104.065 42.3801L103.982 42.4162L103.972 42.3769C103.284 42.2422 93.7689 40.9732 88.7087 40.3026L88.6135 40.2909L88.6467 40.2071C88.6595 40.1922 89.241 38.6728 89.8171 35.9905C90.3473 33.514 90.9812 29.5054 90.9812 24.493C90.9812 19.4784 90.3505 15.4687 89.8171 12.9912C89.2378 10.3088 88.6595 8.79685 88.6467 8.78094L88.6135 8.69817L88.7055 8.68226C93.7689 8.01592 103.288 6.74478 103.968 6.61533L103.98 6.56865ZM58.5772 5.72936C58.5772 5.72936 90.6135 5.32722 100.613 5.72936C100.613 5.72936 87.007 7.42173 83.253 7.87374C79.2093 8.35864 61.8962 8.643 57.5521 8.25678C53.2123 7.87586 47.4124 7.08219 47.4124 7.08219L58.5772 5.72936ZM39.572 10.9126L39.5859 10.8988L39.6041 10.8945C39.6041 10.8945 43.3848 10.7428 47.1613 10.5932C49.0522 10.5189 50.9409 10.4383 52.3594 10.3895C53.6282 10.3449 54.2267 10.3237 54.5196 10.3237C54.5966 10.3205 54.6532 10.3173 54.6906 10.3258L54.7035 10.3205L54.7056 10.3258C54.7911 10.3332 54.7943 10.3492 54.7997 10.3768L54.8125 10.4372L54.773 10.4457C52.9686 13.8114 52.9494 24.3794 52.9515 24.4866C52.9494 24.5959 52.9686 35.1639 54.7783 38.5264L54.8104 38.5391L54.8018 38.5975C54.7943 38.6208 54.7911 38.6399 54.7056 38.6505V38.6569L54.6906 38.6484C54.495 38.6611 53.9499 38.6431 52.3594 38.5848C50.9431 38.5338 49.0511 38.4585 47.1634 38.381C43.3848 38.2304 39.6041 38.0797 39.6041 38.0797L39.5816 38.0712C39.417 38.0097 35.5583 36.504 35.5347 25.2505V25.1328C35.5208 21.7374 35.88 13.5429 39.572 10.9126ZM34.732 27.501H34.096V21.4732H34.732V27.501ZM32.1132 9.70087C32.7962 8.46262 33.7229 7.66895 34.1975 7.9236C34.67 8.18038 34.5 9.38785 33.8191 10.625C33.1447 11.8622 32.2072 12.6569 31.7369 12.4012C31.2644 12.1508 31.4333 10.937 32.1132 9.70087ZM31.7369 36.5741C32.2051 36.3184 33.1415 37.1131 33.8191 38.3503C34.5043 39.5832 34.6732 40.7981 34.1975 41.0549C33.7251 41.3053 32.7941 40.5116 32.111 39.2744C31.4365 38.0372 31.2644 36.8234 31.7369 36.5741Z" fill="url(#paint0_linear_308_32)"/>
<path d="M5.17238 70.6664C5.3871 70.8432 5.66183 71.0801 5.99655 71.3769C6.33127 71.6737 6.71335 71.9674 7.14281 72.2579C7.78699 72.6873 8.42483 73.0221 9.05638 73.2621C9.68793 73.502 10.3511 73.622 11.0458 73.622C11.69 73.622 12.2299 73.5494 12.6657 73.4042C13.1014 73.2589 13.4457 73.0663 13.6983 72.8263C13.9509 72.5863 14.1309 72.3084 14.2382 71.9926C14.3456 71.6769 14.3993 71.3421 14.3993 70.9885C14.3993 70.5969 14.2509 70.2464 13.954 69.937C13.6572 69.6275 13.2941 69.3528 12.8646 69.1128C12.4352 68.8728 11.9868 68.6675 11.5194 68.497C11.0521 68.3265 10.6479 68.1844 10.3069 68.0707C8.79114 67.5402 7.4649 66.9687 6.32811 66.3561C5.19132 65.7435 4.244 65.0614 3.48615 64.3099C2.72829 63.5583 2.15989 62.731 1.78096 61.8279C1.40203 60.9248 1.21257 59.9175 1.21257 58.8059C1.21257 57.6312 1.4494 56.5639 1.92307 55.604C2.39673 54.644 3.07248 53.823 3.95033 53.1409C4.82818 52.4589 5.88602 51.9315 7.12386 51.5589C8.36169 51.1863 9.74477 51 11.2731 51C12.4225 51 13.5246 51.1295 14.5793 51.3884C15.634 51.6473 16.6729 52.061 17.696 52.6294C18.1254 52.882 18.5328 53.1441 18.918 53.4157C19.3033 53.6872 19.6411 53.9493 19.9316 54.2019C20.2222 54.4546 20.4527 54.6946 20.6232 54.9219C20.7937 55.1493 20.879 55.345 20.879 55.5092C20.879 55.6735 20.8379 55.825 20.7558 55.964C20.6737 56.1029 20.5506 56.2608 20.3864 56.4376L17.4876 59.5259C17.2728 59.7406 17.0581 59.848 16.8434 59.848C16.6665 59.848 16.5055 59.7975 16.3602 59.6964C16.215 59.5954 16.0539 59.4691 15.8771 59.3175L15.7066 59.1659C15.454 58.9512 15.1729 58.7301 14.8635 58.5028C14.554 58.2754 14.2225 58.0702 13.8688 57.887C13.5151 57.7039 13.1425 57.5523 12.7509 57.4323C12.3594 57.3123 11.9615 57.2523 11.5573 57.2523C11.1405 57.2523 10.7489 57.2871 10.3826 57.3565C10.0163 57.426 9.69426 57.5365 9.41638 57.6881C9.1385 57.8397 8.91745 58.0386 8.75325 58.2849C8.58905 58.5312 8.50694 58.8312 8.50694 59.1849C8.50694 59.5385 8.59535 59.8448 8.77219 60.1038C8.94902 60.3627 9.21428 60.6027 9.56795 60.8237C9.92161 61.0448 10.3605 61.2532 10.8847 61.449C11.4089 61.6447 12.0183 61.8563 12.713 62.0837C14.0519 62.5257 15.2866 62.9899 16.4171 63.4762C17.5476 63.9625 18.5233 64.5372 19.3443 65.2003C20.1653 65.8635 20.8063 66.6561 21.2674 67.5781C21.7284 68.5002 21.9589 69.618 21.9589 70.9316C21.9589 72.321 21.6747 73.581 21.1063 74.7115C20.5379 75.8419 19.758 76.805 18.7664 77.6008C17.7749 78.3965 16.6097 79.0123 15.2708 79.4481C13.9319 79.8838 12.492 80.1017 10.951 80.1017C9.49848 80.1017 8.07118 79.8428 6.66914 79.3249C5.26711 78.807 3.95979 78.1123 2.74722 77.2408C2.24198 76.8745 1.8157 76.5145 1.46835 76.1609C1.121 75.8072 0.846276 75.523 0.64418 75.3083L0.587326 75.2514C0.574695 75.2262 0.562085 75.2104 0.549454 75.2041C0.536823 75.1977 0.524197 75.1883 0.511566 75.1756C0.498935 75.1504 0.486294 75.1346 0.473663 75.1283C0.461032 75.122 0.448407 75.1125 0.435776 75.0999C0.145264 74.7841 0 74.5315 0 74.342C0 74.1273 0.145264 73.8873 0.435776 73.622L3.7135 70.4959C3.97875 70.3064 4.19348 70.2117 4.35768 70.2117C4.47136 70.2117 4.59134 70.2496 4.71765 70.3254C4.84396 70.4011 4.99555 70.5148 5.17238 70.6664ZM26.5629 52.4399C26.5755 52.2252 26.6545 52.0326 26.7997 51.8621C26.945 51.6915 27.1376 51.6063 27.3776 51.6063H33.0047C33.1941 51.6063 33.3899 51.6852 33.592 51.8431C33.7941 52.001 33.8952 52.1999 33.8952 52.4399V61.4205H43.3115V52.4399C43.3115 52.2126 43.3905 52.0168 43.5484 51.8526C43.7062 51.6884 43.9115 51.6063 44.1641 51.6063H49.7154C49.968 51.6063 50.1891 51.6694 50.3786 51.7958C50.568 51.9221 50.6627 52.1242 50.6627 52.402V78.9081C50.6627 79.186 50.5806 79.3944 50.4164 79.5333C50.2522 79.6723 50.0375 79.7417 49.7723 79.7417H44.1641C43.9115 79.7417 43.7062 79.6723 43.5484 79.5333C43.3905 79.3944 43.3115 79.186 43.3115 78.9081V68.1465H33.8952V78.9081C33.8952 79.1733 33.8099 79.3786 33.6394 79.5238C33.4689 79.6691 33.2383 79.7417 32.9478 79.7417H27.3776C26.8471 79.7417 26.5755 79.4954 26.5629 79.0028V52.4399ZM78.3056 53.6525C78.5203 53.7788 78.6782 53.943 78.7793 54.1451C78.8803 54.3472 78.8614 54.5872 78.7224 54.8651L75.5205 59.4122C75.3815 59.6269 75.2331 59.7501 75.0752 59.7817C74.9173 59.8132 74.7247 59.7596 74.4973 59.6206C73.8784 59.1533 73.1964 58.7933 72.4511 58.5407C71.7059 58.2881 70.9165 58.1617 70.0828 58.1617C69.0471 58.1617 68.0935 58.3575 67.2219 58.7491C66.3504 59.1406 65.5988 59.6775 64.9673 60.3595C64.3358 61.0416 63.8432 61.8374 63.4895 62.7468C63.1358 63.6562 62.959 64.6288 62.959 65.6645C62.959 66.7003 63.1358 67.6697 63.4895 68.5728C63.8432 69.4759 64.3358 70.2654 64.9673 70.9411C65.5988 71.6169 66.3504 72.1505 67.2219 72.5421C68.0935 72.9336 69.0471 73.1294 70.0828 73.1294C70.9165 73.1294 71.7122 73 72.4701 72.741C73.2279 72.4821 73.9163 72.1189 74.5352 71.6516C74.7626 71.5127 74.9521 71.4558 75.1036 71.4811C75.2552 71.5063 75.4068 71.62 75.5583 71.8221L78.7982 76.4829C78.9371 76.7608 78.9561 76.9945 78.855 77.184C78.754 77.3734 78.5961 77.5313 78.3814 77.6576C77.1941 78.4534 75.9152 79.0691 74.5447 79.5049C73.1743 79.9407 71.7312 80.1585 70.2155 80.1585C68.8766 80.1585 67.5914 79.988 66.3599 79.647C65.1283 79.306 63.9758 78.8197 62.9021 78.1881C61.8285 77.5566 60.8528 76.8019 59.9749 75.924C59.0971 75.0462 58.3424 74.0736 57.7108 73.0063C57.0793 71.939 56.593 70.7895 56.2519 69.558C55.9109 68.3265 55.7404 67.0413 55.7404 65.7024C55.7404 64.3635 55.9109 63.0783 56.2519 61.8468C56.593 60.6153 57.0793 59.4596 57.7108 58.3796C58.3424 57.2997 59.0971 56.3176 59.9749 55.4335C60.8528 54.5493 61.8285 53.7946 62.9021 53.1694C63.9758 52.5441 65.1283 52.0578 66.3599 51.7105C67.5914 51.3631 68.8766 51.1895 70.2155 51.1895C71.7312 51.1895 73.1616 51.401 74.5068 51.8242C75.852 52.2473 77.1183 52.8568 78.3056 53.6525ZM88.0251 65.6835C88.0251 66.7318 88.2019 67.7107 88.5556 68.6202C88.9093 69.5296 89.405 70.3222 90.0429 70.998C90.6808 71.6737 91.4355 72.2042 92.307 72.5895C93.1785 72.9747 94.1385 73.1673 95.1868 73.1673C96.2352 73.1673 97.1983 72.9747 98.0762 72.5895C98.954 72.2042 99.7119 71.6737 100.35 70.998C100.988 70.3222 101.483 69.5296 101.837 68.6202C102.191 67.7107 102.368 66.7318 102.368 65.6835C102.368 64.6477 102.191 63.672 101.837 62.7563C101.483 61.8405 100.988 61.0416 100.35 60.3595C99.7119 59.6775 98.954 59.1406 98.0762 58.7491C97.1983 58.3575 96.2352 58.1617 95.1868 58.1617C94.1385 58.1617 93.1785 58.3575 92.307 58.7491C91.4355 59.1406 90.6808 59.6775 90.0429 60.3595C89.405 61.0416 88.9093 61.8405 88.5556 62.7563C88.2019 63.672 88.0251 64.6477 88.0251 65.6835ZM80.7118 65.7024C80.7118 64.3635 80.8823 63.0783 81.2233 61.8468C81.5644 60.6153 82.0507 59.4596 82.6822 58.3796C83.3138 57.2997 84.0685 56.3176 84.9463 55.4335C85.8242 54.5493 86.7999 53.7946 87.8735 53.1694C88.9472 52.5441 90.0997 52.0578 91.3313 51.7105C92.5628 51.3631 93.848 51.1895 95.1868 51.1895C96.5131 51.1895 97.7951 51.3631 99.033 51.7105C100.271 52.0578 101.427 52.5441 102.5 53.1694C103.574 53.7946 104.553 54.5493 105.437 55.4335C106.321 56.3176 107.076 57.2997 107.701 58.3796C108.326 59.4596 108.813 60.6153 109.16 61.8468C109.507 63.0783 109.681 64.3635 109.681 65.7024C109.681 67.0413 109.507 68.3265 109.16 69.558C108.813 70.7895 108.326 71.939 107.701 73.0063C107.076 74.0736 106.321 75.0462 105.437 75.924C104.553 76.8019 103.574 77.5566 102.5 78.1881C101.427 78.8197 100.271 79.306 99.033 79.647C97.7951 79.988 96.5131 80.1585 95.1868 80.1585C93.848 80.1585 92.5628 79.988 91.3313 79.647C90.0997 79.306 88.9472 78.8197 87.8735 78.1881C86.7999 77.5566 85.8242 76.8019 84.9463 75.924C84.0685 75.0462 83.3138 74.0736 82.6822 73.0063C82.0507 71.939 81.5644 70.7895 81.2233 69.558C80.8823 68.3265 80.7118 67.0413 80.7118 65.7024ZM120.329 65.6835C120.329 66.7318 120.506 67.7107 120.859 68.6202C121.213 69.5296 121.709 70.3222 122.347 70.998C122.984 71.6737 123.739 72.2042 124.611 72.5895C125.482 72.9747 126.442 73.1673 127.491 73.1673C128.539 73.1673 129.502 72.9747 130.38 72.5895C131.258 72.2042 132.016 71.6737 132.653 70.998C133.291 70.3222 133.787 69.5296 134.141 68.6202C134.494 67.7107 134.671 66.7318 134.671 65.6835C134.671 64.6477 134.494 63.672 134.141 62.7563C133.787 61.8405 133.291 61.0416 132.653 60.3595C132.016 59.6775 131.258 59.1406 130.38 58.7491C129.502 58.3575 128.539 58.1617 127.491 58.1617C126.442 58.1617 125.482 58.3575 124.611 58.7491C123.739 59.1406 122.984 59.6775 122.347 60.3595C121.709 61.0416 121.213 61.8405 120.859 62.7563C120.506 63.672 120.329 64.6477 120.329 65.6835ZM113.015 65.7024C113.015 64.3635 113.186 63.0783 113.527 61.8468C113.868 60.6153 114.354 59.4596 114.986 58.3796C115.617 57.2997 116.372 56.3176 117.25 55.4335C118.128 54.5493 119.104 53.7946 120.177 53.1694C121.251 52.5441 122.403 52.0578 123.635 51.7105C124.866 51.3631 126.152 51.1895 127.491 51.1895C128.817 51.1895 130.099 51.3631 131.337 51.7105C132.575 52.0578 133.73 52.5441 134.804 53.1694C135.877 53.7946 136.856 54.5493 137.741 55.4335C138.625 56.3176 139.379 57.2997 140.005 58.3796C140.63 59.4596 141.116 60.6153 141.464 61.8468C141.811 63.0783 141.985 64.3635 141.985 65.7024C141.985 67.0413 141.811 68.3265 141.464 69.558C141.116 70.7895 140.63 71.939 140.005 73.0063C139.379 74.0736 138.625 75.0462 137.741 75.924C136.856 76.8019 135.877 77.5566 134.804 78.1881C133.73 78.8197 132.575 79.306 131.337 79.647C130.099 79.988 128.817 80.1585 127.491 80.1585C126.152 80.1585 124.866 79.988 123.635 79.647C122.403 79.306 121.251 78.8197 120.177 78.1881C119.104 77.5566 118.128 76.8019 117.25 75.924C116.372 75.0462 115.617 74.0736 114.986 73.0063C114.354 71.939 113.868 70.7895 113.527 69.558C113.186 68.3265 113.015 67.0413 113.015 65.7024ZM145.963 52.421C145.963 52.1936 146.039 51.9978 146.191 51.8336C146.342 51.6694 146.551 51.5873 146.816 51.5873H152.424C152.639 51.5873 152.835 51.6631 153.011 51.8147C153.188 51.9663 153.283 52.1684 153.296 52.421V73.0347H163.716C163.943 73.0347 164.139 73.1105 164.303 73.2621C164.468 73.4136 164.55 73.622 164.55 73.8873V78.8702C164.55 79.0849 164.477 79.2807 164.332 79.4575C164.187 79.6344 163.981 79.7291 163.716 79.7417H146.797C146.241 79.7417 145.963 79.4638 145.963 78.9081V52.421Z" fill="url(#paint1_linear_308_32)"/>
<defs>
<linearGradient id="paint0_linear_308_32" x1="28" y1="0" x2="129" y2="0" gradientUnits="userSpaceOnUse">
<stop stop-color="#006838"/>
<stop offset="1" stop-color="#96CF24"/>
</linearGradient>
<linearGradient id="paint1_linear_308_32" x1="-135.45" y1="51" x2="164.55" y2="51" gradientUnits="userSpaceOnUse">
<stop stop-color="#51504F"/>
<stop offset="0.5" stop-color="#939598"/>
<stop offset="1" stop-color="#51504F"/>
</linearGradient>
</defs>
</svg>
